<svg width="24" height="24" viewBox="0 0 24 24" fill="none" xmlns="http://www.w3.org/2000/svg">
<path d="M12 4.2703C14.5174 4.2703 14.8157 4.27973 15.81 4.32516C16.4077 4.33212 16.9998 4.44201 17.5603 4.65001C17.97 4.80096 18.3405 5.04204 18.6446 5.35544C18.958 5.65946 19.199 6.03002 19.35 6.43973C19.558 7.00017 19.6679 7.59226 19.6748 8.19001C19.7203 9.1843 19.7297 9.48258 19.7297 12C19.7297 14.5174 19.7203 14.8157 19.6748 15.81C19.6679 16.4078 19.558 16.9999 19.35 17.5603C19.1931 17.967 18.9528 18.3363 18.6445 18.6446C18.3363 18.9528 17.967 19.1931 17.5603 19.35C16.9998 19.558 16.4077 19.6679 15.81 19.6749C14.8157 19.7203 14.5174 19.7297 12 19.7297C9.48255 19.7297 9.18427 19.7203 8.18998 19.6749C7.59223 19.6679 7.00014 19.558 6.4397 19.35C6.02999 19.1991 5.65943 18.958 5.35541 18.6446C5.04201 18.3406 4.80093 17.97 4.64998 17.5603C4.44198 16.9999 4.33209 16.4078 4.32513 15.81C4.2797 14.8157 4.27027 14.5174 4.27027 12C4.27027 9.48258 4.2797 9.1843 4.32513 8.19001C4.33209 7.59226 4.44198 7.00017 4.64998 6.43973C4.80093 6.03002 5.04201 5.65946 5.35541 5.35544C5.65943 5.04204 6.02999 4.80096 6.4397 4.65001C7.00014 4.44201 7.59223 4.33212 8.18998 4.32516C9.18427 4.27973 9.48255 4.2703 12 4.2703ZM12 2.57144C9.4397 2.57144 9.11827 2.58258 8.11284 2.62801C7.33077 2.64418 6.55704 2.79226 5.82427 3.06601C5.19731 3.30873 4.62804 3.67989 4.15302 4.15565C3.678 4.63141 3.30773 5.20125 3.06598 5.82858C2.79223 6.56136 2.64414 7.33508 2.62798 8.11716C2.58255 9.1183 2.57141 9.43973 2.57141 12C2.57141 14.5603 2.58255 14.8817 2.62798 15.8872C2.64414 16.6692 2.79223 17.443 3.06598 18.1757C3.3087 18.8027 3.67986 19.372 4.15562 19.847C4.63137 20.322 5.20122 20.6923 5.82855 20.934C6.56133 21.2078 7.33505 21.3559 8.11713 21.372C9.11827 21.4174 9.4397 21.4286 12 21.4286C14.5603 21.4286 14.8817 21.4174 15.8871 21.372C16.6692 21.3559 17.4429 21.2078 18.1757 20.934C18.8027 20.6913 19.3719 20.3201 19.8469 19.8444C20.322 19.3686 20.6922 18.7988 20.934 18.1714C21.2077 17.4387 21.3558 16.6649 21.372 15.8829C21.4174 14.8817 21.4286 14.5603 21.4286 12C21.4286 9.43973 21.4174 9.1183 21.372 8.11287C21.3558 7.3308 21.2077 6.55707 20.934 5.8243C20.6913 5.19734 20.3201 4.62807 19.8444 4.15305C19.3686 3.67803 18.7987 3.30776 18.1714 3.06601C17.4386 2.79226 16.6649 2.64418 15.8828 2.62801C14.8817 2.58258 14.5603 2.57144 12 2.57144Z" fill="#242424"/>
<path d="M12 7.15799C11.0423 7.15799 10.1062 7.44197 9.30989 7.97401C8.51363 8.50606 7.89302 9.26228 7.52654 10.147C7.16006 11.0318 7.06417 12.0054 7.251 12.9446C7.43783 13.8839 7.89898 14.7466 8.57615 15.4238C9.25332 16.101 10.1161 16.5621 11.0553 16.749C11.9946 16.9358 12.9682 16.8399 13.8529 16.4734C14.7377 16.1069 15.4939 15.4863 16.0259 14.6901C16.558 13.8938 16.842 12.9576 16.842 12C16.842 10.7158 16.3318 9.48423 15.4238 8.57618C14.5157 7.66813 13.2841 7.15799 12 7.15799ZM12 15.1431C11.3783 15.1431 10.7706 14.9588 10.2537 14.6134C9.73684 14.268 9.33397 13.7772 9.09608 13.2028C8.85818 12.6285 8.79593 11.9965 8.91721 11.3868C9.03849 10.7771 9.33785 10.217 9.77742 9.77745C10.217 9.33788 10.7771 9.03852 11.3868 8.91724C11.9965 8.79596 12.6285 8.85821 13.2028 9.0961C13.7771 9.334 14.268 9.73687 14.6134 10.2538C14.9588 10.7706 15.1431 11.3783 15.1431 12C15.1431 12.8336 14.812 13.6331 14.2225 14.2225C13.633 14.812 12.8336 15.1431 12 15.1431Z" fill="#242424"/>
<path d="M17.0332 8.09828C17.658 8.09828 18.1646 7.59172 18.1646 6.96685C18.1646 6.34198 17.658 5.83542 17.0332 5.83542C16.4083 5.83542 15.9017 6.34198 15.9017 6.96685C15.9017 7.59172 16.4083 8.09828 17.0332 8.09828Z" fill="#242424"/>
</svg>
